Coordinates
version=1
nRows=19
nColumns=63
inDegrees=yes

Units are S.I. units (second, meters, Newtons, ...)
If the header above contains a line with 'inDegrees', this indicates whether rotational values are in degrees (yes) or radians (no).

endheader
time	pelvis_tilt	pelvis_list	pelvis_rotation	pelvis_tx	pelvis_ty	pelvis_tz	hip_flexion_r	hip_adduction_r	hip_rotation_r	knee_angle_r	knee_angle_r_beta	ankle_angle_r	subtalar_angle_r	mtp_angle_r	hip_flexion_l	hip_adduction_l	hip_rotation_l	knee_angle_l	knee_angle_l_beta	ankle_angle_l	subtalar_angle_l	mtp_angle_l	L5_S1_Flex_Ext	L5_S1_Lat_Bending	L5_S1_axial_rotation	L4_L5_Flex_Ext	L4_L5_Lat_Bending	L4_L5_axial_rotation	L3_L4_Flex_Ext	L3_L4_Lat_Bending	L3_L4_axial_rotation	L2_L3_Flex_Ext	L2_L3_Lat_Bending	L2_L3_axial_rotation	L1_L2_Flex_Ext	L1_L2_Lat_Bending	L1_L2_axial_rotation	L1_T12_Flex_Ext	L1_T12_Lat_Bending	L1_T12_axial_rotation	Abs_r3	Abs_r2	Abs_r1	Abs_t1	Abs_t2	neck_flexion	neck_bending	neck_rotation	arm_flex_r	arm_add_r	arm_rot_r	elbow_flex_r	pro_sup_r	wrist_flex_r	wrist_dev_r	arm_flex_l	arm_add_l	arm_rot_l	elbow_flex_l	pro_sup_l	wrist_flex_l	wrist_dev_l
0.983051	2.002077	-2.636226	100.923309	0.123690	0.647319	0.813023	3.067935	-2.330835	-13.151473	4.393216	0.076676	29.968966	13.235409	0.000000	6.591172	3.418855	9.273307	5.312356	0.092718	27.780665	-3.752582	0.000000	0.333158	-0.060153	-1.059672	0.618708	-0.080004	-1.125902	0.547345	-0.146257	-1.125902	0.380766	-0.146257	-0.927213	0.309370	-0.122665	-0.860984	0.190366	-0.093177	-0.794754	2.379713	-0.680466	-5.893579	0.000000	0.000000	27.314179	4.092582	2.102850	30.168627	-6.381761	104.350928	36.909038	87.975868	-20.390071	-3.341258	16.522308	-9.453332	64.853870	43.671346	59.252580	4.224170	-0.689351
1.000000	1.997998	-2.689885	100.663487	0.123855	0.647148	0.812667	3.144436	-2.346504	-12.912578	4.413724	0.077034	29.988300	13.280353	0.000000	6.567898	3.426337	9.109296	5.335453	0.093121	27.694649	-4.044864	0.000000	0.340601	-0.053931	-1.050299	0.632530	-0.071728	-1.115943	0.559573	-0.131127	-1.115943	0.389273	-0.131127	-0.919012	0.316282	-0.109975	-0.853368	0.194619	-0.083538	-0.787724	2.432877	-0.610073	-5.841449	0.000000	0.000000	27.369718	4.104328	2.472863	30.269753	-6.318918	104.754412	36.923961	87.980304	-20.489678	-3.359343	16.239300	-9.455099	64.253841	43.770045	59.625242	4.201064	-0.585738
1.016949	2.017600	-2.762929	100.481875	0.123949	0.646946	0.812326	3.238606	-2.347724	-12.834508	4.443880	0.077560	30.023841	13.422963	0.000000	6.581924	3.422206	9.010351	5.355324	0.093468	27.626742	-4.297772	0.000000	0.351900	-0.045948	-1.057894	0.653513	-0.061111	-1.124012	0.578136	-0.111718	-1.124012	0.402186	-0.111718	-0.925657	0.326774	-0.093697	-0.859539	0.201075	-0.071173	-0.793421	2.513584	-0.519771	-5.883689	0.000000	0.000000	27.439321	4.141218	2.869106	30.357548	-6.244834	105.142081	36.931025	88.003512	-20.588110	-3.312168	15.919165	-9.459901	63.569801	43.882709	60.008052	4.191016	-0.446132
1.033898	2.060635	-2.833522	100.371662	0.123994	0.646747	0.812010	3.310288	-2.313150	-12.652389	4.436929	0.077439	30.020118	13.335457	0.000000	6.622172	3.388024	8.785429	5.383064	0.093952	27.639487	-4.248263	0.000000	0.363373	-0.035128	-1.083234	0.674821	-0.046721	-1.150936	0.596986	-0.085411	-1.150936	0.415300	-0.085411	-0.947830	0.337429	-0.071634	-0.880128	0.207632	-0.054414	-0.812426	2.595541	-0.397379	-6.024624	0.000000	0.000000	27.519911	4.193454	3.346937	30.472282	-6.145708	105.619343	36.925121	88.003418	-20.708214	-3.254706	15.584369	-9.483403	62.881398	44.032702	60.206063	4.136034	-0.273756
1.050847	2.114756	-2.908565	100.324007	0.124019	0.646558	0.811747	3.380819	-2.265756	-12.513627	4.422797	0.077192	30.010877	13.218771	0.000000	6.685023	3.339936	8.535995	5.398287	0.094218	27.694365	-4.029888	0.000000	0.375706	-0.024431	-1.115938	0.697723	-0.032494	-1.185684	0.617247	-0.059403	-1.185684	0.429394	-0.059403	-0.976446	0.348880	-0.049821	-0.906700	0.214678	-0.037844	-0.836954	2.683629	-0.276373	-6.206514	0.000000	0.000000	27.597441	4.234090	3.773823	30.561362	-6.052359	105.997124	36.927782	88.007465	-20.775878	-3.125431	15.290485	-9.514619	62.288929	44.169483	60.409246	4.086766	-0.136985
1.067797	2.180602	-2.965017	100.320867	0.124032	0.646410	0.811575	3.428497	-2.198685	-12.381409	4.396798	0.076739	29.981658	13.050410	0.000000	6.760457	3.271477	8.202530	5.429172	0.094757	27.816231	-3.594452	0.000000	0.384414	-0.012177	-1.154919	0.713896	-0.016195	-1.227102	0.631554	-0.029607	-1.227102	0.439347	-0.029607	-1.010555	0.356967	-0.024831	-0.938372	0.219654	-0.018862	-0.866190	2.745833	-0.137747	-6.423316	0.000000	0.000000	27.668706	4.253053	4.227577	30.656587	-5.965191	106.320393	36.938397	87.998231	-20.772826	-2.969900	15.031492	-9.544931	61.758068	44.296564	60.559790	4.015747	-0.020700
1.084746	2.241353	-3.010213	100.336063	0.124096	0.646299	0.811498	3.468948	-2.128259	-12.200817	4.373775	0.076337	29.927724	12.793130	0.000000	6.839496	3.197814	7.794756	5.453457	0.095181	27.988989	-2.976869	0.000000	0.390459	-0.001747	-1.190446	0.725121	-0.002324	-1.264849	0.641485	-0.004248	-1.264849	0.446255	-0.004248	-1.041641	0.362580	-0.003563	-0.967238	0.223108	-0.002706	-0.892835	2.789008	-0.019765	-6.620905	0.000000	0.000000	27.707756	4.250578	4.618757	30.740540	-5.881491	106.567979	36.947616	87.985958	-20.755573	-2.805835	14.838439	-9.584206	61.357858	44.407772	60.659364	3.944051	0.062958
1.101695	2.291337	-3.045479	100.374928	0.124180	0.646219	0.811506	3.507244	-2.073362	-12.203655	4.376416	0.076383	29.893926	12.730638	0.000000	6.907912	3.141601	7.615007	5.450214	0.095124	28.129012	-2.587628	0.000000	0.394194	0.005488	-1.219142	0.732057	0.007299	-1.295339	0.647621	0.013343	-1.295339	0.450524	0.013343	-1.066749	0.366048	0.011191	-0.990553	0.225242	0.008501	-0.914357	2.815687	0.062080	-6.780503	0.000000	0.000000	27.702865	4.223708	4.878604	30.787711	-5.825832	106.652365	36.970469	87.976110	-20.680977	-2.639503	14.706348	-9.618910	61.041495	44.484627	60.882320	3.923557	0.124230
1.118644	2.328291	-3.058498	100.427987	0.124304	0.646187	0.811623	3.528316	-2.026503	-12.257094	4.393587	0.076683	29.848906	12.703968	0.000000	6.970025	3.091182	7.438798	5.450721	0.095133	28.302327	-2.135037	0.000000	0.392924	0.009336	-1.238611	0.729698	0.012416	-1.316025	0.645534	0.022699	-1.316025	0.449072	0.022699	-1.083785	0.364869	0.019037	-1.006372	0.224517	0.014461	-0.928959	2.806614	0.105607	-6.888785	0.000000	0.000000	27.657149	4.183236	5.012728	30.815061	-5.790752	106.612266	36.993070	87.964934	-20.563500	-2.492660	14.655503	-9.650206	60.862047	44.530284	61.049470	3.920668	0.162081
1.135593	2.344560	-3.062457	100.514702	0.124445	0.646197	0.811800	3.536589	-1.998408	-12.380946	4.421449	0.077169	29.801778	12.717906	0.000000	7.019518	3.055870	7.262642	5.423012	0.094649	28.484719	-1.580947	0.000000	0.390039	0.007725	-1.249974	0.724341	0.010274	-1.328097	0.640794	0.018782	-1.328097	0.445775	0.018782	-1.093727	0.362190	0.015753	-1.015604	0.222868	0.011966	-0.937480	2.786006	0.087385	-6.951979	0.000000	0.000000	27.548363	4.130614	4.977036	30.794848	-5.775447	106.425664	37.009445	87.959705	-20.442611	-2.376449	14.692969	-9.685845	60.878777	44.541055	61.095420	3.931795	0.169968
1.152542	2.344252	-3.036150	100.608305	0.124602	0.646274	0.812074	3.519082	-1.982947	-12.554627	4.464960	0.077928	29.748119	12.777319	0.000000	7.060833	3.031127	7.085399	5.421831	0.094629	28.681369	-1.013968	0.000000	0.381189	0.002206	-1.249388	0.707907	0.002935	-1.327475	0.626256	0.005365	-1.327475	0.435661	0.005365	-1.093215	0.353972	0.004499	-1.015128	0.217812	0.003418	-0.937041	2.722797	0.024959	-6.948723	0.000000	0.000000	27.407210	4.076538	4.779170	30.756766	-5.783999	106.134003	37.020477	87.957276	-20.307058	-2.292528	14.819566	-9.708866	61.057870	44.510735	61.014917	3.941464	0.174080
1.169492	2.324098	-2.990839	100.707872	0.124767	0.646406	0.812423	3.485731	-1.984303	-12.724501	4.522259	0.078928	29.681856	12.808023	0.000000	7.085243	3.020949	6.847877	5.414455	0.094500	28.871963	-0.378397	0.000000	0.368958	-0.007237	-1.238240	0.685192	-0.009625	-1.315630	0.606162	-0.017595	-1.315630	0.421682	-0.017595	-1.083460	0.342615	-0.014757	-1.006070	0.210823	-0.011210	-0.928680	2.635432	-0.081863	-6.886721	0.000000	0.000000	27.226344	4.011552	4.451933	30.698482	-5.807661	105.764606	37.012317	87.954111	-20.163946	-2.268857	15.034829	-9.724834	61.430527	44.440021	60.749658	3.939292	0.166220
1.186441	2.290506	-2.934918	100.801557	0.124929	0.646570	0.812816	3.449043	-2.003752	-12.959046	4.601951	0.080319	29.617244	12.920725	0.000000	7.096084	3.027930	6.695999	5.404203	0.094321	29.008545	0.079845	0.000000	0.355105	-0.019421	-1.219004	0.659465	-0.025830	-1.295192	0.583401	-0.047220	-1.295192	0.405849	-0.047220	-1.066629	0.329750	-0.039603	-0.990441	0.202907	-0.030083	-0.914253	2.536477	-0.219695	-6.779737	0.000000	0.000000	27.016619	3.948195	4.013981	30.621506	-5.846418	105.330302	37.006938	87.958826	-20.030462	-2.237171	15.292323	-9.730206	61.863748	44.341629	60.537776	3.962464	0.174075
1.203390	2.245904	-2.862010	100.860230	0.125129	0.646777	0.813268	3.397037	-2.025819	-13.096229	4.676321	0.081617	29.510378	12.936269	0.000000	7.103546	3.038292	6.380341	5.433228	0.094828	29.142988	0.629649	0.000000	0.337826	-0.033274	-1.186979	0.627377	-0.044255	-1.261165	0.555014	-0.080903	-1.261165	0.386101	-0.080903	-1.038606	0.313705	-0.067853	-0.964420	0.193034	-0.051542	-0.890234	2.413057	-0.376407	-6.601619	0.000000	0.000000	26.799973	3.878508	3.488380	30.541627	-5.896903	104.858525	36.984723	87.923673	-19.864418	-2.273746	15.626101	-9.731594	62.478046	44.222455	60.082682	3.947090	0.177193
1.220339	2.192398	-2.797180	100.896306	0.125310	0.646970	0.813760	3.378055	-2.076931	-13.402187	4.803731	0.083841	29.437855	13.179542	0.000000	7.106925	3.073806	6.213658	5.461103	0.095314	29.173032	0.859396	0.000000	0.321035	-0.048195	-1.148132	0.596194	-0.064099	-1.219890	0.527428	-0.117181	-1.219890	0.366911	-0.117181	-1.004615	0.298113	-0.098279	-0.932857	0.183439	-0.074654	-0.861099	2.293119	-0.545191	-6.385565	0.000000	0.000000	26.583575	3.796685	2.901763	30.451328	-5.970363	104.330166	36.986497	87.920643	-19.697982	-2.292093	15.969383	-9.715719	63.077228	44.082296	59.768330	3.967732	0.176215
1.237288	2.130850	-2.747993	100.884401	0.125553	0.647142	0.814298	3.395312	-2.132629	-13.525471	4.953661	0.086458	29.338723	13.227058	0.000000	7.146277	3.101898	5.683573	5.555371	0.096960	29.237934	1.443302	0.000000	0.304933	-0.064207	-1.099260	0.566291	-0.085395	-1.167964	0.500975	-0.156112	-1.167964	0.348508	-0.156112	-0.961853	0.283161	-0.130931	-0.893149	0.174239	-0.099456	-0.824445	2.178107	-0.726320	-6.113756	0.000000	0.000000	26.386352	3.718934	2.295862	30.369348	-6.039465	103.840276	36.975968	87.928946	-19.612304	-2.342673	16.349373	-9.710380	63.796766	43.950852	59.215512	3.932680	0.137239
1.254237	2.078538	-2.725931	100.870403	0.125752	0.647262	0.814879	3.454677	-2.196753	-13.775787	5.128745	0.089513	29.246435	13.423389	0.000000	7.219814	3.140542	5.289911	5.680991	0.099152	29.224771	1.777519	0.000000	0.291284	-0.079069	-1.052664	0.540944	-0.105162	-1.118456	0.478551	-0.192249	-1.118456	0.332909	-0.192249	-0.921081	0.270487	-0.161238	-0.855290	0.166440	-0.122478	-0.789498	2.080614	-0.894448	-5.854604	0.000000	0.000000	26.224487	3.647588	1.691505	30.305698	-6.109104	103.407569	36.965799	87.940093	-19.559135	-2.415548	16.691268	-9.691239	64.381321	43.826270	58.894019	3.937713	0.123018
1.271186	2.034837	-2.736951	100.844880	0.125942	0.647326	0.815480	3.560601	-2.263326	-14.004391	5.319815	0.092848	29.148671	13.595883	0.000000	7.332887	3.179499	4.890388	5.830090	0.101754	29.191594	2.088391	0.000000	0.280982	-0.093190	-1.006329	0.521811	-0.123943	-1.069224	0.461625	-0.226582	-1.069224	0.321134	-0.226582	-0.880538	0.260920	-0.190033	-0.817642	0.160553	-0.144351	-0.754747	2.007024	-1.054185	-5.596900	0.000000	0.000000	26.107777	3.592124	1.099451	30.259350	-6.174967	103.047692	36.946614	87.956685	-19.555828	-2.533104	17.018471	-9.673170	64.938010	43.717611	58.605681	3.932171	0.111767
1.288136	2.002938	-2.777995	100.820673	0.126103	0.647339	0.816094	3.702514	-2.327813	-14.239399	5.510779	0.096181	29.052467	13.774739	0.000000	7.482696	3.216560	4.527874	5.992644	0.104591	29.144939	2.362604	0.000000	0.273694	-0.106168	-0.963854	0.508278	-0.141203	-1.024095	0.449652	-0.258136	-1.024095	0.312805	-0.258136	-0.843372	0.254152	-0.216497	-0.783131	0.156389	-0.164454	-0.722890	1.954971	-1.200991	-5.360665	0.000000	0.000000	26.047118	3.567156	0.539662	30.231538	-6.235946	102.765854	36.917417	87.968810	-19.607543	-2.696827	17.320977	-9.649340	65.441230	43.615574	58.388267	3.908252	0.101855
